<svg width="683" height="203" viewBox="0 0 683 203" fill="none" xmlns="http://www.w3.org/2000/svg">
<path d="M183.411 100.625C189.931 99.9985 195.974 100.531 201.541 102.225C212.63 105.605 216.18 120.015 212.81 130.065C210.73 136.258 206.754 141.222 200.881 144.955C200.743 145.042 200.642 145.178 200.599 145.335C200.557 145.492 200.575 145.66 200.65 145.805C205.263 154.385 210.338 162.648 215.871 170.595C227.851 187.795 243.07 197.735 264.81 194.455C269.21 193.789 273.38 192.908 277.32 191.815C277.407 191.791 277.499 191.787 277.589 191.803C277.678 191.819 277.763 191.854 277.837 191.906C277.91 191.959 277.971 192.028 278.015 192.108C278.059 192.187 278.085 192.275 278.091 192.365C278.157 193.665 278.437 194.892 278.93 196.045C278.971 196.139 278.991 196.239 278.991 196.341C278.991 196.443 278.971 196.543 278.93 196.637C278.89 196.73 278.831 196.815 278.758 196.885C278.684 196.955 278.596 197.01 278.501 197.045C247.201 208.165 215.391 202.694 196.581 173.444C192.487 167.078 188.593 160.461 184.9 153.595C183.967 151.855 182.84 150.374 181.52 149.154C181.383 149.037 181.218 148.958 181.041 148.925L178.291 148.505C177.861 148.436 177.467 148.225 177.173 147.905C176.879 147.586 176.702 147.177 176.671 146.745L176.411 143.365C176.384 143.042 176.482 142.721 176.682 142.468C176.883 142.215 177.172 142.05 177.49 142.005C188.8 140.315 196.69 135.194 195.82 122.654C195.1 112.225 185.931 111.315 177.291 112.785C177.139 112.811 177.001 112.889 176.9 113.006C176.8 113.123 176.742 113.271 176.74 113.425C176.647 120.385 176.14 139.192 175.22 169.845C175.06 175.065 176.58 177.685 180.44 181.075C180.564 181.181 180.653 181.322 180.696 181.479C180.739 181.636 180.736 181.802 180.684 181.956C180.633 182.111 180.536 182.246 180.407 182.346C180.278 182.445 180.123 182.504 179.961 182.515L150.72 184.765C150.622 184.772 150.524 184.75 150.437 184.703C150.351 184.656 150.279 184.586 150.231 184.5C150.183 184.414 150.16 184.317 150.165 184.219C150.17 184.12 150.203 184.025 150.26 183.944L154.541 178.075C154.923 177.555 155.192 176.958 155.331 176.325C156.017 173.199 156.467 169.541 156.68 165.355C157.614 147.228 158.227 130.828 158.52 116.154C158.546 114.968 158.268 113.794 157.711 112.745C155.837 109.179 153.247 106.078 149.94 103.444C149.915 103.425 149.896 103.398 149.887 103.367C149.878 103.336 149.879 103.303 149.889 103.272C149.9 103.24 149.92 103.212 149.947 103.192C149.974 103.171 150.007 103.158 150.041 103.154C159.907 102.654 171.031 101.812 183.411 100.625Z" fill="white"/>
<path d="M508.781 136.165C517.311 127.655 528.641 131.215 538.781 134.055C539.244 134.181 539.72 134.232 540.19 134.205L547.791 133.755C547.942 133.747 548.093 133.778 548.228 133.846C548.364 133.914 548.479 134.016 548.563 134.143C548.647 134.269 548.697 134.415 548.707 134.567C548.717 134.718 548.687 134.869 548.621 135.005L539.77 152.975C539.735 153.047 539.679 153.107 539.61 153.147C539.541 153.186 539.461 153.206 539.381 153.2C539.3 153.195 539.222 153.166 539.156 153.117C539.09 153.068 539.039 153.001 539.01 152.925C536.83 146.778 532.487 143.222 525.98 142.255C524.294 142.002 522.771 142.165 521.411 142.745C521.18 142.844 520.973 142.99 520.802 143.174C520.63 143.358 520.5 143.575 520.418 143.813C520.336 144.05 520.304 144.302 520.325 144.552C520.346 144.802 520.42 145.045 520.541 145.265C521.447 146.891 522.781 148.259 524.541 149.365C533.981 155.275 549.971 159.256 550.671 173.695C551.08 182.355 546.49 188.605 538.35 190.515C534.24 191.485 528.451 190.995 523.841 189.985C515.051 188.065 508.79 186.415 503.9 186.115C503.855 186.112 503.811 186.097 503.773 186.072C503.735 186.048 503.703 186.015 503.68 185.976C503.658 185.936 503.645 185.892 503.643 185.847C503.642 185.801 503.651 185.756 503.671 185.715L512.491 167.795C512.522 167.732 512.568 167.677 512.627 167.637C512.685 167.597 512.754 167.574 512.824 167.568C512.894 167.562 512.965 167.573 513.029 167.603C513.093 167.632 513.149 167.678 513.19 167.735C517.19 173.315 523.651 181.085 530.841 178.895C534.96 177.635 533.64 173.245 530.85 171.195C529.897 170.496 528.904 169.885 527.871 169.365C520.621 165.685 512.43 161.845 508.26 156.015C503.981 150.035 503.841 141.095 508.781 136.165Z" fill="white"/>
<path fill-rule="evenodd" clip-rule="evenodd" d="M491.88 106.169C491.963 106.195 492.042 106.239 492.108 106.296C492.175 106.353 492.229 106.423 492.267 106.502C492.306 106.581 492.327 106.667 492.331 106.755C493.631 138.008 494.537 158.264 495.051 167.525C495.501 175.684 495.38 180.295 500.77 185.305C500.841 185.369 500.89 185.454 500.911 185.547C500.931 185.64 500.923 185.738 500.885 185.826C500.848 185.914 500.783 185.988 500.702 186.038C500.62 186.088 500.526 186.111 500.43 186.105L479.9 185.145C479.789 185.139 479.679 185.113 479.578 185.066C479.477 185.018 479.386 184.951 479.311 184.868C479.236 184.786 479.177 184.688 479.139 184.583C479.102 184.478 479.085 184.367 479.091 184.255L479.211 181.734C479.216 181.654 479.197 181.574 479.157 181.504C479.117 181.434 479.056 181.377 478.983 181.34C478.91 181.303 478.828 181.288 478.746 181.296C478.664 181.304 478.585 181.335 478.52 181.385C475.9 183.445 472.97 184.645 469.73 184.984C461.07 185.891 454.247 183.255 449.26 177.075C437.021 161.905 438.66 131.595 460.32 125.835C464.9 124.615 470.061 125.378 475.801 128.125C475.855 128.151 475.915 128.163 475.975 128.158C476.035 128.154 476.093 128.134 476.143 128.101C476.194 128.068 476.235 128.022 476.262 127.969C476.29 127.915 476.303 127.855 476.301 127.795C476.147 123.255 475.957 120.091 475.73 118.305C475.13 113.725 472.57 112.395 469.49 109.705C469.416 109.64 469.362 109.554 469.336 109.459C469.309 109.364 469.311 109.263 469.341 109.169C469.37 109.075 469.426 108.991 469.503 108.928C469.579 108.865 469.672 108.826 469.77 108.815L491.621 106.145C491.708 106.135 491.796 106.143 491.88 106.169ZM475.89 141.725C473.08 137.285 467.67 135.195 463.28 138.785C461.874 139.932 460.894 141.942 460.341 144.815C458.707 153.301 459.554 161.045 462.881 168.045C464.747 171.971 467.99 173.552 472.61 172.785C472.954 172.726 473.29 172.603 473.6 172.425C476.574 170.692 477.957 167.925 477.751 164.125C477.631 161.832 477.43 156.718 477.15 148.785C477.08 146.865 476.52 144.625 476.27 142.765C476.224 142.396 476.094 142.041 475.89 141.725Z" fill="white"/>
<path d="M276.711 152.835C276.271 133.645 288.741 119.715 308.671 120.795C309.797 120.862 312.381 121.128 316.421 121.595C319.91 121.995 323.16 121.485 326.35 120.965C326.477 120.944 326.607 120.957 326.727 121.002C326.847 121.048 326.953 121.124 327.034 121.224C327.115 121.323 327.169 121.442 327.189 121.568C327.21 121.695 327.197 121.825 327.151 121.944C324.798 128.151 321.537 134.931 317.371 142.284C317.341 142.341 317.295 142.387 317.239 142.417C317.183 142.447 317.119 142.46 317.055 142.453C316.992 142.447 316.932 142.422 316.884 142.381C316.835 142.34 316.799 142.286 316.781 142.225C315.171 136.705 313.581 132.344 308.051 131.364C305.684 130.944 303.377 131.422 301.131 132.795C294.831 136.655 293.771 144.175 293.871 150.944C293.991 158.534 298.301 167.825 306.691 168.045C314.001 168.245 319.561 164.844 325.901 161.454C325.996 161.403 326.102 161.378 326.21 161.379C326.318 161.381 326.424 161.41 326.517 161.464C326.611 161.518 326.688 161.596 326.743 161.689C326.798 161.781 326.828 161.886 326.831 161.994C326.857 162.854 326.637 163.735 326.171 164.635C320.365 175.833 317.152 181.953 316.531 182.994C316.475 183.091 316.389 183.168 316.288 183.214C316.186 183.26 316.073 183.274 315.964 183.253C315.854 183.232 315.754 183.178 315.676 183.098C315.599 183.018 315.548 182.915 315.531 182.805C315.298 181.465 314.591 180.801 313.411 180.815C309.631 180.855 302.951 181.215 298.171 180.015C285.671 176.875 277.011 165.685 276.711 152.835Z" fill="white"/>
<path fill-rule="evenodd" clip-rule="evenodd" d="M251.701 123.215C260.171 123.435 266.71 127.835 271.39 134.625C272.01 135.525 272.137 136.485 271.77 137.505C271.672 137.786 271.499 138.035 271.27 138.225C261.35 146.271 252.907 153.242 245.94 159.135C244.534 160.328 243.221 161.608 242.001 162.975C241.888 163.102 241.824 163.263 241.818 163.432C241.813 163.6 241.866 163.764 241.97 163.895C249.89 173.975 264.4 167.054 272.81 161.784C272.913 161.72 273.035 161.692 273.156 161.702C273.277 161.713 273.391 161.763 273.481 161.844C273.571 161.925 273.634 162.033 273.657 162.152C273.68 162.272 273.664 162.396 273.611 162.505L263.671 182.705C263.627 182.792 263.561 182.866 263.48 182.921C263.399 182.976 263.305 183.009 263.208 183.017C263.11 183.025 263.012 183.008 262.924 182.967C262.835 182.926 262.758 182.863 262.701 182.784C261.801 181.558 260.451 181.044 258.651 181.244C243.421 182.884 229.671 179.184 224.861 162.904C222.154 153.718 223.117 144.718 227.751 135.904C229.051 133.425 230.971 131.095 233.51 128.915C237.924 125.129 243.037 123.242 248.85 123.255L251.701 123.215ZM250.381 131.525C246.281 130.825 243.25 134.645 242.02 138.265C240.36 143.125 239.728 148.439 240.121 154.205C240.125 154.267 240.146 154.327 240.181 154.378C240.217 154.429 240.267 154.468 240.323 154.492C240.379 154.516 240.441 154.524 240.501 154.514C240.56 154.504 240.616 154.476 240.661 154.435C244.627 150.941 248.591 147.151 252.551 143.065C254.177 141.378 255.084 140.104 255.27 139.244C255.9 136.254 253.68 132.085 250.381 131.525Z" fill="white"/>
<path d="M411.52 123.775C411.669 123.775 411.812 123.835 411.917 123.942C412.022 124.048 412.081 124.194 412.081 124.345V131.145C412.081 131.223 412.108 131.298 412.156 131.359C412.204 131.421 412.272 131.464 412.348 131.483C412.424 131.501 412.504 131.493 412.575 131.461C412.646 131.429 412.705 131.374 412.741 131.305C414.694 127.632 417.511 125.268 421.191 124.215C421.753 124.05 422.339 123.985 422.921 124.025C426.081 124.235 430.5 125.195 434.31 125.205C435.77 125.212 437.204 125.202 438.611 125.175C438.716 125.172 438.821 125.196 438.915 125.244C439.008 125.293 439.087 125.365 439.145 125.453C439.203 125.541 439.238 125.643 439.246 125.748C439.254 125.853 439.235 125.959 439.191 126.055L430.341 145.595C430.31 145.666 430.259 145.726 430.195 145.769C430.131 145.811 430.056 145.835 429.979 145.836C429.902 145.837 429.826 145.816 429.76 145.775C429.695 145.733 429.644 145.674 429.611 145.605C429.231 144.785 429.361 142.725 428.481 141.175C425.001 135.035 418.821 136.195 415.041 141.045C413.634 142.852 412.967 145.445 413.041 148.824C413.194 155.424 413.304 160.748 413.371 164.795C413.431 168.648 413.801 171.488 414.481 173.315C415.401 175.828 416.791 178.362 418.651 180.915C418.709 180.997 418.742 181.094 418.748 181.193C418.754 181.294 418.731 181.394 418.683 181.483C418.636 181.571 418.564 181.644 418.477 181.693C418.39 181.743 418.291 181.768 418.191 181.765L391.701 180.525C391.662 180.523 391.623 180.514 391.588 180.497C391.552 180.48 391.521 180.457 391.495 180.427C391.469 180.397 391.449 180.361 391.436 180.323C391.424 180.285 391.418 180.245 391.421 180.205L391.441 179.614C391.454 179.37 391.561 179.138 391.741 178.965C394.848 176.065 396.388 172.348 396.361 167.815C396.288 156.281 395.974 145.214 395.421 134.614C395.321 132.615 394.6 130.588 393.26 128.535C393.149 128.365 392.998 128.226 392.821 128.135L388.68 125.944C388.452 125.825 388.27 125.633 388.164 125.398C388.058 125.162 388.033 124.897 388.095 124.647C388.158 124.396 388.304 124.174 388.508 124.016C388.711 123.858 388.962 123.773 389.22 123.775H411.52Z" fill="white"/>
<path fill-rule="evenodd" clip-rule="evenodd" d="M354.831 120.625C393.78 117.015 397.29 178.125 360.491 181.545C323.681 184.955 315.891 124.245 354.831 120.625ZM364.497 135.721C362.029 132.138 358.949 130.276 355.935 130.545C352.921 130.814 350.219 133.192 348.425 137.155C346.63 141.119 345.89 146.343 346.366 151.679C346.842 157.015 348.496 162.026 350.965 165.609C353.433 169.192 356.512 171.054 359.526 170.785C362.54 170.516 365.242 168.138 367.037 164.175C368.831 160.211 369.572 154.987 369.095 149.651C368.619 144.314 366.965 139.304 364.497 135.721Z" fill="white"/>
<path d="M130.831 33.5743C130.927 33.5628 131.025 33.573 131.117 33.6027C131.209 33.6324 131.294 33.6817 131.365 33.7472C131.436 33.8127 131.492 33.8933 131.529 33.9825C131.566 34.0719 131.584 34.1681 131.581 34.2648L131.461 36.715C131.448 37.0806 131.294 37.4255 131.031 37.6749C128.751 39.8416 126.927 42.6317 125.56 46.045C117.02 67.3716 110.044 84.2082 104.631 96.5548C100.717 105.461 95.9909 113.155 90.4509 119.635C80.3009 131.495 64.5301 139.415 48.9001 139.465C48.7024 139.465 48.5096 139.404 48.3484 139.289C48.187 139.174 48.0653 139.012 48.0007 138.824C47.6875 137.944 47.6772 137.105 47.9704 136.305C48.0364 136.129 48.1405 135.97 48.2751 135.839C48.4099 135.708 48.5725 135.607 48.7507 135.545C53.344 133.918 56.1342 132.915 57.1208 132.535C73.3308 126.255 86.3303 110.615 92.3103 94.2247C93.0503 92.1847 92.8708 90.1445 92.0808 87.9445C87.7675 75.9512 83.3508 64.0179 78.8308 52.1447C76.9708 47.2448 74.2008 44.6248 70.241 41.6349C70.1394 41.5582 70.0627 41.4526 70.0222 41.3322C69.9818 41.2118 69.9791 41.0813 70.0134 40.9581C70.0478 40.835 70.1182 40.724 70.2156 40.6398C70.313 40.5556 70.4329 40.5013 70.5603 40.4845L97.4304 37.1945C97.618 37.171 97.8085 37.1973 97.9831 37.2697C98.1577 37.342 98.3105 37.4583 98.4265 37.6075C98.5425 37.7568 98.6183 37.9341 98.6452 38.1212C98.6721 38.3082 98.6498 38.4991 98.5808 38.6749C97.8141 40.5949 97.2205 41.9818 96.8005 42.8351C95.6407 45.175 96.3209 47.8449 97.1609 50.3448C99.9941 58.7446 102.127 65.248 103.56 69.8546C103.574 69.9072 103.605 69.9538 103.647 69.9874C103.689 70.021 103.742 70.0399 103.797 70.0421C103.852 70.0443 103.907 70.0292 103.954 69.9991C104.001 69.9692 104.038 69.9261 104.06 69.8751C106.534 63.6351 109.104 56.5878 111.77 48.7345C113.75 42.9046 112.111 41.0845 108.631 36.7345C108.599 36.6933 108.578 36.6444 108.571 36.5929C108.564 36.5414 108.569 36.4889 108.589 36.4406C108.608 36.3921 108.64 36.3491 108.68 36.3165C108.721 36.2841 108.77 36.2632 108.821 36.255L130.831 33.5743Z" fill="white"/>
<path d="M642.861 57.1945C651.511 51.1749 662.771 55.9247 673.191 59.1847C673.469 59.2772 673.763 59.3212 674.06 59.3146L678.781 59.1945C678.871 59.1905 678.959 59.2102 679.04 59.2501C679.12 59.2901 679.19 59.3491 679.241 59.423C679.292 59.497 679.323 59.5835 679.332 59.673C679.34 59.7623 679.326 59.8523 679.291 59.9347L672.121 76.7345C672.047 76.903 671.925 77.0465 671.77 77.1466C671.616 77.2465 671.436 77.2991 671.253 77.297C671.07 77.2948 670.892 77.2384 670.742 77.1349C670.592 77.0313 670.477 76.8849 670.411 76.715C668.181 71.0151 661.521 64.7547 654.651 65.7443C652.701 66.0243 651.74 67.7749 653.02 69.3448C654.414 71.0514 656.091 72.5176 658.051 73.7443C665.031 78.0843 672.73 81.6048 678.01 87.7648C683.45 94.0948 684.25 104.814 677.56 110.654C670.97 116.404 662.46 114.885 654.35 112.645C647.511 110.751 641.434 109.165 636.121 107.885C636.033 107.864 635.951 107.824 635.881 107.767C635.81 107.71 635.754 107.637 635.716 107.556C635.677 107.474 635.658 107.385 635.659 107.295C635.66 107.205 635.68 107.115 635.72 107.034L644.301 89.6144C644.362 89.4927 644.456 89.3901 644.571 89.3175C644.686 89.2449 644.819 89.2053 644.955 89.2032C645.09 89.2012 645.224 89.2366 645.34 89.3058C645.455 89.3749 645.549 89.475 645.611 89.5948C648.264 94.6014 651.821 98.4647 656.281 101.185C658.841 102.755 663.761 104.034 665.751 101.074C667.98 97.7745 661.141 93.1152 658.821 91.9249C648.651 86.7349 633.281 78.3545 637.631 64.2345C638.517 61.3546 640.261 59.0077 642.861 57.1945Z" fill="white"/>
<path fill-rule="evenodd" clip-rule="evenodd" d="M513.201 58.0148C513.801 45.2249 522.271 34.785 535.671 35.545C540.737 35.8317 545.004 36.518 548.47 37.6046C553.89 39.2913 559.484 40.1554 565.251 40.1954C565.331 40.1975 565.409 40.2158 565.481 40.2501C565.553 40.2846 565.618 40.334 565.669 40.3947C565.72 40.4552 565.757 40.5259 565.778 40.6017C565.799 40.6776 565.804 40.7575 565.791 40.8351C565.241 44.2651 564.74 46.6451 564.9 49.8751C565.5 61.855 566.631 74.9547 567.081 87.5646C567.274 93.0579 566.814 97.0486 565.701 99.5353C560.671 110.725 547.88 112.595 536.89 110.015C529.897 108.375 523.58 105.245 517.94 100.625C517.779 100.496 517.673 100.311 517.641 100.106C517.61 99.9004 517.656 99.6895 517.77 99.5148L524.051 89.9952C524.119 89.8937 524.209 89.8087 524.315 89.7482C524.421 89.6876 524.541 89.6524 524.663 89.6456C524.785 89.6388 524.907 89.6608 525.019 89.7091C525.132 89.7575 525.231 89.8315 525.31 89.9249C527.837 92.9315 529.544 94.805 530.43 95.545C534.03 98.5584 538.1 100.065 542.64 100.065C548.91 100.065 549.821 95.1551 549.991 90.1652C549.994 90.1079 549.982 90.0506 549.957 89.9991C549.931 89.9478 549.893 89.9031 549.845 89.8702C549.798 89.8374 549.742 89.8169 549.683 89.8107C549.625 89.8044 549.565 89.8131 549.51 89.8351C542.284 92.9017 535.09 92.8081 527.93 89.5548C519.961 85.9248 514.491 75.1052 513.371 66.8654C513.084 64.7654 513.028 61.8148 513.201 58.0148ZM544.86 49.3146C541.72 46.545 537.561 46.0053 534.161 48.6349C526.831 54.3249 529.511 72.675 536.451 78.545C539.664 81.2648 542.994 81.4614 546.44 79.1349C548.38 77.8216 549.353 76.0684 549.36 73.8751C549.36 71.9085 548.94 66.1616 548.1 56.6349C547.82 53.405 547.44 51.5745 544.86 49.3146Z" fill="white"/>
<path d="M594.321 43.5851C594.666 43.6007 594.991 43.7487 595.229 43.9982C595.468 44.2478 595.601 44.5797 595.6 44.9249V51.1847C595.598 51.2618 595.62 51.3376 595.663 51.4015C595.706 51.4654 595.768 51.5149 595.841 51.5431C595.913 51.5711 595.993 51.5771 596.07 51.5597C596.147 51.5422 596.216 51.5021 596.27 51.4454C601.964 45.4121 608.694 44.1148 616.461 47.5548C622.921 50.4148 625.8 56.6049 626.51 63.2648C626.63 64.3714 627.064 69.6216 627.81 79.0148C628.3 85.1348 628.281 91.2951 629.081 96.3751C629.581 99.495 630.461 102.255 632.621 104.495C633.441 105.342 633.977 106.142 634.23 106.895C634.255 106.965 634.263 107.041 634.25 107.114C634.237 107.188 634.205 107.256 634.158 107.314C634.111 107.371 634.049 107.415 633.979 107.442C633.91 107.468 633.834 107.476 633.76 107.465L606.14 103.175C606.004 103.155 605.876 103.097 605.771 103.008C605.666 102.919 605.588 102.803 605.546 102.672C605.503 102.541 605.497 102.4 605.53 102.267C605.563 102.133 605.632 102.012 605.73 101.915C608.73 98.9752 611.45 96.4848 611.23 91.8448C610.65 79.6518 610.024 70.422 609.35 64.1554C608.97 60.6355 606.631 57.7648 602.741 58.4845C598.768 59.2178 596.824 61.9318 596.911 66.6251C597.064 75.3117 597.39 82.1421 597.89 87.1154C598.237 90.5551 598.954 93.2581 600.041 95.2247C601.207 97.3314 602.42 99.2419 603.68 100.955C603.784 101.1 603.843 101.272 603.849 101.45C603.856 101.629 603.81 101.805 603.718 101.957C603.625 102.109 603.49 102.232 603.329 102.308C603.168 102.384 602.987 102.41 602.81 102.385L575.111 98.0851C575.006 98.067 574.907 98.0183 574.829 97.9454C574.751 97.8724 574.695 97.7779 574.67 97.674C574.644 97.5699 574.65 97.4605 574.685 97.3595C574.721 97.2585 574.786 97.1695 574.871 97.1046C581.381 92.2647 580.591 87.0147 580.111 78.8048C579.664 71.1049 579.27 62.9515 578.93 54.3448C578.72 49.0251 575.051 46.6151 571.321 43.3253C571.247 43.2626 571.194 43.1774 571.171 43.0831C571.148 42.989 571.156 42.8897 571.192 42.7999C571.229 42.7103 571.292 42.6343 571.375 42.5831C571.457 42.532 571.553 42.5079 571.65 42.5148L594.321 43.5851Z" fill="white"/>
<path d="M349.756 0.212036C350.308 -0.0272564 350.946 -0.0653686 351.551 0.104614C354.084 0.817941 356.401 1.39818 358.501 1.84485C359.221 2.00351 359.968 2.02343 360.701 1.90442C367.931 0.734452 375.261 1.22509 383.161 1.58508C397.661 2.2451 415.26 8.31476 414.93 26.0646C414.764 35.2646 410.511 42.1545 402.171 46.7345C402.117 46.7636 402.07 46.8038 402.032 46.8517C401.994 46.8994 401.967 46.9542 401.951 47.0128C401.935 47.0718 401.931 47.134 401.939 47.1945C401.948 47.2547 401.969 47.3124 402.001 47.3644C408.094 57.231 414.051 66.4851 419.871 75.1251C428.301 87.6449 439.941 96.6643 454.89 99.3243C461.444 100.498 469.604 100.435 479.371 99.1349C479.651 99.096 479.938 99.148 480.191 99.2843C481.371 99.9176 481.911 100.772 481.811 101.845C481.793 102.036 481.727 102.22 481.621 102.38C481.514 102.54 481.37 102.673 481.201 102.765C477.454 104.798 473.027 106.078 467.921 106.605C444.951 108.965 422.56 102.155 407.18 84.3947C404.354 81.1213 400.864 75.6848 396.711 68.0851C395.497 65.8651 392.234 60.2715 386.921 51.3048C384.771 47.6748 383.191 46.4748 379.461 44.8448C379.141 44.7051 378.878 44.461 378.716 44.1525C378.553 43.8439 378.5 43.4893 378.565 43.1466C378.63 42.8039 378.809 42.4932 379.074 42.2657C379.338 42.0385 379.673 41.9075 380.021 41.8947C384.411 41.7245 390.4 39.7245 393.68 36.6447C398.794 31.8447 399.707 25.8282 396.421 18.5948C393.161 11.4148 382.99 9.81508 376.47 10.5851C376.296 10.6052 376.135 10.6901 376.02 10.8234C375.905 10.9568 375.844 11.1288 375.85 11.3048C376.544 33.2779 376.994 51.3677 377.201 65.5743C377.241 68.6609 377.747 71.2814 378.72 73.4347C379.57 75.3345 381.59 77.0445 382.43 78.1945C382.51 78.3074 382.557 78.441 382.564 78.5792C382.571 78.7175 382.539 78.8552 382.47 78.9757C382.402 79.0963 382.302 79.1956 382.179 79.2609C382.057 79.3261 381.919 79.3551 381.781 79.3448C371.261 78.5248 361.794 78.2913 353.381 78.6447C353.321 78.6489 353.262 78.6344 353.211 78.6036C353.16 78.5728 353.119 78.5274 353.094 78.4728C353.07 78.418 353.064 78.3566 353.076 78.298C353.088 78.2394 353.117 78.1857 353.161 78.1447C353.748 77.538 354.504 76.861 355.43 76.1144C358.224 73.8344 359.647 70.8249 359.701 67.0851C359.968 48.2118 359.981 31.2982 359.741 16.3448C359.671 12.285 359.761 8.16519 355.901 4.99524C355.669 4.80316 355.406 4.64697 355.121 4.5343L351.951 3.2345C351.381 2.92453 350.771 2.72771 350.123 2.6427C350.339 2.67101 350.55 2.71146 350.758 2.76477C350.965 2.81809 351.168 2.88372 351.367 2.96204C351.566 3.04033 351.761 3.13121 351.951 3.2345C351.104 3.33442 350.274 3.1213 349.461 2.59485L349.197 2.43665C348.632 2.06985 348.416 1.72527 348.551 1.40442C348.775 0.875364 349.203 0.45135 349.756 0.212036Z" fill="white"/>
<path d="M71.0896 17.0948C71.1602 17.092 71.2311 17.1071 71.2947 17.1378C71.3583 17.1687 71.4142 17.2153 71.4558 17.2726C71.4973 17.3299 71.5234 17.3969 71.5329 17.4669C71.5424 17.537 71.5351 17.6087 71.5105 17.6749C70.8205 19.5249 70.5697 21.405 69.7497 23.3849C67.0164 29.9582 63.9536 36.5858 60.5603 43.2657C60.5209 43.3404 60.4583 43.4003 60.3825 43.4376C60.3067 43.4749 60.2207 43.4872 60.1374 43.4728C60.0544 43.4582 59.9774 43.4181 59.9187 43.3575C59.86 43.2969 59.8222 43.2185 59.8103 43.1349C59.3036 39.1017 57.8529 35.3185 55.4597 31.7853L55.4587 31.7843C51.6726 29.0987 47.6064 28.5753 43.2605 30.215C29.9306 35.235 22.8697 47.7356 20.9997 61.3156C21.073 61.9753 21.0133 62.6517 20.82 63.3448L20.8601 65.5255C20.5502 77.2354 26.1404 90.0447 39.8601 89.8048C49.93 89.6248 58.2402 84.1654 65.1902 77.4454C65.4932 77.1466 65.8912 76.9622 66.3152 76.9249C66.7391 76.8878 67.163 76.9999 67.5134 77.2413C67.8639 77.4829 68.1189 77.8397 68.2351 78.2491C68.3512 78.6586 68.3216 79.0959 68.1501 79.4855L59.0603 100.776C58.9919 100.935 58.8765 101.069 58.7302 101.162C58.584 101.255 58.413 101.301 58.24 101.295C56.4602 101.235 55.3499 101.248 54.9099 101.335C44.28 103.445 30.91 107.025 19.9001 102.745C2.62033 96.0252 -2.13994 78.2048 0.82005 61.1749C4.50016 40.0252 20.6102 22.0549 42.1599 18.3448C51.0397 16.8149 62.0297 17.2648 71.0896 17.0948Z" fill="white"/>
<path d="M184.98 28.5333C185.047 28.5422 185.111 28.5674 185.166 28.6056C185.221 28.6439 185.266 28.6949 185.297 28.754C185.327 28.8129 185.342 28.8784 185.341 28.9445C185.334 30.6444 184.98 32.3112 184.28 33.9445C181.367 40.8111 178.7 46.485 176.28 50.965C175.96 51.5582 175.747 51.8916 175.64 51.965C175.518 52.0496 175.375 52.1004 175.226 52.1124C175.078 52.1245 174.928 52.0972 174.794 52.0333C174.659 51.9695 174.544 51.8716 174.459 51.7491C174.374 51.6266 174.323 51.4836 174.31 51.3351C174.07 48.3551 173.72 43.605 170.61 42.795C162.09 40.5653 157.56 49.935 157.19 57.1349C156.69 67.0149 156.537 74.2484 156.73 78.8351C156.9 82.9549 158.421 83.9746 160.711 86.4445C160.794 86.535 160.851 86.6478 160.876 86.7687C160.9 86.8894 160.89 87.0144 160.847 87.13C160.805 87.2458 160.732 87.3482 160.635 87.4249C160.539 87.5016 160.423 87.5495 160.301 87.5646L134.001 90.7853C133.838 90.8036 133.673 90.7719 133.528 90.6945C133.383 90.617 133.266 90.4969 133.192 90.3517C133.118 90.2065 133.09 90.0423 133.113 89.882C133.136 89.7218 133.208 89.5728 133.32 89.4552C136.14 86.4553 138.58 84.075 138.93 80.1652C139.624 72.3786 140.177 60.0285 140.591 43.1154C140.701 38.7754 137.67 36.9246 134.47 34.8146C134.318 34.7123 134.201 34.5663 134.135 34.3956C134.068 34.2249 134.054 34.0378 134.096 33.8595C134.139 33.6812 134.235 33.5199 134.372 33.3976C134.508 33.2754 134.678 33.1978 134.86 33.1749L157.19 30.4445C157.296 30.4318 157.404 30.4441 157.505 30.4786C157.605 30.5132 157.697 30.5698 157.773 30.6447C157.849 30.7196 157.907 30.8108 157.943 30.9113C157.979 31.0116 157.991 31.1188 157.98 31.2247L157.421 36.5148C157.414 36.5929 157.434 36.6714 157.476 36.7374C157.519 36.8033 157.582 36.8539 157.655 36.881C157.728 36.908 157.809 36.9104 157.884 36.8878C157.958 36.8651 158.024 36.8183 158.07 36.755C160.88 32.765 164.971 29.0247 170.421 29.2247C177.18 29.4747 180.43 30.1346 184.78 28.5548C184.844 28.5321 184.913 28.5245 184.98 28.5333Z" fill="white"/>
<path d="M500.81 32.545C500.936 32.5514 501.056 32.6016 501.147 32.6876C501.239 32.7737 501.296 32.8899 501.31 33.0148C502.457 43.6681 503.147 55.1948 503.381 67.5948C503.401 68.6615 503.664 71.7983 504.171 77.005C504.651 81.9648 506.331 85.6647 509.56 89.0646C509.614 89.119 509.65 89.1892 509.662 89.2648C509.673 89.3402 509.661 89.4175 509.626 89.4865C509.591 89.5554 509.535 89.6133 509.467 89.6505C509.398 89.6877 509.319 89.7026 509.241 89.6945L482.951 86.9249C482.789 86.9085 482.633 86.8495 482.501 86.754C482.368 86.6586 482.263 86.5298 482.196 86.381C482.129 86.2321 482.102 86.0677 482.119 85.9054C482.135 85.743 482.195 85.5875 482.291 85.4552C485.061 81.5653 486.531 79.555 486.361 74.5753C485.968 63.5687 485.564 52.5049 485.151 41.3849C484.971 36.5949 482.88 35.0145 480.18 31.9445C480.154 31.9123 480.137 31.8734 480.132 31.8322C480.126 31.7908 480.133 31.7487 480.151 31.7111C480.169 31.6733 480.198 31.6416 480.233 31.6193C480.268 31.5971 480.309 31.5851 480.35 31.5851L500.81 32.545Z" fill="white"/>
<path fill-rule="evenodd" clip-rule="evenodd" d="M445.23 27.8751C456.72 25.7052 467.41 32.5546 473.73 41.7843C473.981 42.1517 474.083 42.6006 474.016 43.0402C473.95 43.4797 473.719 43.878 473.371 44.1544L444.77 66.7247C444.686 66.7906 444.617 66.874 444.567 66.9689C444.518 67.064 444.489 67.1694 444.483 67.2765C444.478 67.3834 444.495 67.4903 444.534 67.59C444.573 67.6898 444.634 67.78 444.711 67.8546C453.171 76.1746 466.921 73.4847 475.961 67.8947C476.048 67.8398 476.15 67.8153 476.253 67.8243C476.355 67.8334 476.452 67.8752 476.528 67.9445C476.604 68.0136 476.655 68.1061 476.674 68.2072C476.692 68.3083 476.677 68.4133 476.631 68.505L466.81 88.4552C466.781 88.5166 466.737 88.5701 466.683 88.6115C466.629 88.653 466.565 88.6818 466.497 88.6945C466.429 88.707 466.359 88.7036 466.292 88.6847C466.225 88.6658 466.163 88.6315 466.111 88.5851L464.081 86.6847C463.724 86.3602 463.271 86.1598 462.791 86.1144C460.371 85.8944 458.144 85.7411 456.111 85.6544C442.998 85.0944 433.73 78.7549 428.31 66.6349C421.72 51.895 427.711 31.2054 445.23 27.8751ZM450.411 36.1749C448.451 36.1016 446.921 36.6914 445.821 37.9445C441.161 43.3044 441.62 51.0245 442.18 58.1945C442.187 58.2642 442.212 58.3311 442.254 58.3878C442.295 58.4446 442.351 58.4891 442.416 58.5167C442.48 58.5443 442.55 58.5542 442.62 58.545C442.689 58.5358 442.755 58.5083 442.81 58.465C446.437 55.505 450.458 52.115 454.871 48.295C456.284 47.075 457.124 46.108 457.39 45.3947C457.515 45.0664 457.556 44.716 457.51 44.3751C457.02 40.6152 454.491 36.3351 450.411 36.1749Z" fill="white"/>
<path d="M240.654 24.0128C240.711 24.025 240.766 24.0498 240.812 24.0851C240.859 24.1204 240.897 24.1661 240.925 24.2179C240.952 24.2696 240.968 24.3265 240.97 24.3849C241.344 30.1248 241.544 33.3615 241.571 34.0948C241.644 36.1215 241.694 47.6215 241.72 68.5948C241.727 73.0282 243.081 76.9253 245.781 80.2853C245.861 80.3846 245.913 80.5036 245.931 80.63C245.95 80.7567 245.934 80.8868 245.885 81.006C245.837 81.1251 245.757 81.2298 245.654 81.3087C245.551 81.3877 245.429 81.4381 245.301 81.4552L225.371 83.8849C225.281 83.8966 225.19 83.8885 225.104 83.8615C225.018 83.8343 224.938 83.7886 224.872 83.7277C224.805 83.6667 224.752 83.5922 224.718 83.5089C224.683 83.4256 224.667 83.3354 224.671 83.2452L224.781 80.9445C224.784 80.8447 224.759 80.746 224.708 80.6603C224.656 80.5743 224.581 80.5044 224.491 80.4601C224.401 80.4159 224.301 80.3989 224.202 80.4103C224.102 80.4217 224.008 80.461 223.93 80.5245C220.72 83.2845 215.211 85.8044 210.951 85.9445C203.178 86.2111 197.67 82.6718 194.43 75.3253C193.45 73.0987 192.998 69.6048 193.071 64.8448C193.298 49.5389 193.424 40.9656 193.451 39.1251C193.531 34.0552 190.511 32.0846 186.911 30.3947C186.802 30.3424 186.713 30.2565 186.657 30.1495C186.601 30.0428 186.581 29.9209 186.6 29.8019C186.619 29.6827 186.677 29.5725 186.763 29.4884C186.85 29.4044 186.961 29.3507 187.081 29.3351L208.56 26.7052C208.727 26.6848 208.896 26.7248 209.036 26.8185C209.175 26.9121 209.277 27.053 209.321 27.215C209.921 29.4676 210.227 30.7642 210.241 31.1046C210.528 39.5446 210.514 49.4654 210.201 60.8654C210.151 62.9855 210.041 67.4154 211.001 70.2052C212.161 73.5548 216.101 74.295 218.93 72.8253C226.39 68.9553 225.851 59.5348 225.881 51.3448C225.901 46.1715 225.92 41.4215 225.94 37.0948C225.96 31.3649 224.07 30.3452 219.77 27.6652C219.679 27.6071 219.609 27.5209 219.569 27.42C219.53 27.3191 219.524 27.2083 219.551 27.1036C219.579 26.9989 219.64 26.9051 219.724 26.837C219.809 26.7692 219.912 26.7298 220.02 26.7247C227.227 26.4581 234.047 25.5547 240.48 24.0148C240.537 24.0015 240.597 24.0007 240.654 24.0128Z" fill="white"/>
<path d="M274.72 22.3546C287.572 22.5746 294.392 22.6517 295.18 22.5851C295.257 22.5773 295.335 22.5865 295.408 22.6124C295.481 22.6383 295.547 22.68 295.601 22.7345C295.656 22.7891 295.697 22.8552 295.723 22.9279C295.749 23.0004 295.758 23.0778 295.751 23.1544L295.381 26.8546C295.381 26.9011 295.374 26.9488 295.361 26.9952C293.781 32.8284 291.394 37.9481 288.201 42.3546C288.176 42.387 288.141 42.4109 288.101 42.422C288.062 42.4329 288.02 42.4307 287.982 42.4161C287.944 42.4015 287.911 42.3754 287.889 42.3409C287.867 42.3065 287.858 42.2655 287.861 42.2247C287.968 41.1531 288.014 40.5766 288.001 40.4952C287.294 37.2419 285.514 34.8613 282.661 33.3546C279.121 31.4847 274.071 30.0846 270.711 32.6144C268.464 34.2943 268.121 36.3213 269.68 38.6945C271.51 41.4845 280.481 44.4348 286.911 47.0948C287.664 47.4082 289.321 48.538 291.881 50.4845C298.531 55.5345 300.04 64.4252 296.35 71.4952C288.66 86.2145 265.011 81.4746 252.401 79.3546C252.326 79.3419 252.255 79.3131 252.193 79.2697C252.131 79.2262 252.08 79.1691 252.044 79.1036C252.007 79.0383 251.986 78.9659 251.982 78.8917C251.978 78.8174 251.992 78.7431 252.021 78.6749L259.051 62.2247C259.099 62.1145 259.177 62.0197 259.276 61.9513C259.375 61.8829 259.492 61.8433 259.612 61.837C259.732 61.8308 259.852 61.8584 259.958 61.9161C260.063 61.974 260.151 62.0604 260.211 62.1652C262.184 65.7251 264.988 68.4382 268.621 70.3048C272.271 72.1748 277.581 72.0148 280.691 69.3048C286.531 64.2149 278.711 60.205 274.501 58.295C266.291 54.555 252.951 48.8346 254.301 37.8546C255.551 27.6649 264.881 22.1947 274.72 22.3546Z" fill="white"/>
<path d="M491.64 9.255C495.56 9.055 498.85 10.4653 499.9 14.5753C500.56 17.1854 500.691 21.9952 498.621 23.8751C498.388 24.081 498.129 24.2583 497.85 24.4044C494.87 25.9377 491.824 25.7947 488.711 23.9747C481.931 20.0148 482.941 9.70517 491.64 9.255Z" fill="white"/>
</svg>
