<svg xmlns="http://www.w3.org/2000/svg" viewBox="0 0 280 80" role="img" aria-label="Cyrus Reigns Records">
  <defs>
    <linearGradient id="bk" x1="0%" y1="0%" x2="100%" y2="0%">
      <stop offset="0%" style="stop-color:#0a0a0a"/>
      <stop offset="100%" style="stop-color:#0a0a0a"/>
    </linearGradient>
  </defs>
  <!-- Crown – geometric, minimal -->
  <path fill="currentColor" d="M40 28 L20 48 L28 38 L14 52 L22 42 L8 48 L16 36 L4 28 L24 28 L40 12 L56 28 L76 28 L64 36 L72 48 L58 42 L66 52 L52 38 L60 48 Z"/>
  <!-- Book / Bible – simple rect -->
  <rect x="100" y="18" width="32" height="44" rx="2" fill="none" stroke="currentColor" stroke-width="2"/>
  <line x1="108" y1="28" x2="124" y2="28" stroke="currentColor" stroke-width="1.5"/>
  <line x1="108" y1="36" x2="120" y2="36" stroke="currentColor" stroke-width="1"/>
  <line x1="108" y1="44" x2="124" y2="44" stroke="currentColor" stroke-width="1"/>
  <!-- Text – geometric -->
  <text x="145" y="42" font-family="system-ui, -apple-system, 'Segoe UI', sans-serif" font-size="18" font-weight="700" fill="currentColor">Cyrus Reigns</text>
  <text x="145" y="58" font-family="system-ui, -apple-system, 'Segoe UI', sans-serif" font-size="12" font-weight="500" fill="currentColor" opacity="0.7">Records</text>
</svg>
